<svg width="80" height="80" fill="none" xmlns="http://www.w3.org/2000/svg"><path d="M67.291 29.427a.781.781 0 00-.781.781v22.448H13.49V27.344h53.802a.781.781 0 000-1.563H12.709a.781.781 0 00-.781.782v26.875a.781.781 0 00.78.78h54.584a.781.781 0 00.781-.78v-23.23a.781.781 0 00-.782-.781z" fill="#000"/><path d="M23.386 48.906a.781.781 0 00.781.782H59.38a.78.78 0 00.78-.782 2.216 2.216 0 012.215-2.213.781.781 0 00.782-.782V34.09a.781.781 0 00-.782-.782 2.216 2.216 0 01-2.214-2.213.781.781 0 00-.78-.782H20.62a.781.781 0 00-.78.782 2.216 2.216 0 01-2.216 2.213.781.781 0 00-.781.782v11.82a.781.781 0 00.781.782 2.216 2.216 0 012.214 2.213.781.781 0 101.563 0 3.783 3.783 0 00-2.995-3.695V34.79a3.788 3.788 0 002.915-2.914h37.357a3.789 3.789 0 002.914 2.914v10.42a3.79 3.79 0 00-2.914 2.914H24.167a.781.781 0 00-.781.781z" fill="#000"/><path d="M38.438 42.344a.782.782 0 00-1.563 0 3.126 3.126 0 002.344 3.014v1.022a.781.781 0 101.562 0v-1.022a3.11 3.11 0 000-6.028v-3.017a1.557 1.557 0 01.782 1.343.781.781 0 101.562 0 3.125 3.125 0 00-2.344-3.013V33.62a.781.781 0 10-1.562 0v1.023a3.11 3.11 0 000 6.028v3.017a1.557 1.557 0 01-.782-1.344zm3.124 0a1.557 1.557 0 01-.78 1.344V41a1.557 1.557 0 01.78 1.344zm-3.124-4.688a1.558 1.558 0 01.78-1.343V39a1.557 1.557 0 01-.78-1.344z" fill="#000"/></svg>