<svg width="80" height="80" fill="none" xmlns="http://www.w3.org/2000/svg"><path d="M43.094 60.324a3.151 3.151 0 00-.722-.563c.5-.043.968-.262 1.322-.617.3-.343.458-.787.442-1.242a1.924 1.924 0 00-.292-1.053 1.535 1.535 0 00-.777-.64 4.864 4.864 0 00-1.556-.18h-2.84v6.68h1.35v-2.787h.273c.23-.01.458.016.68.076.155.058.294.154.405.278.257.311.495.64.71.981l.975 1.454h1.614l-.816-1.303a7.619 7.619 0 00-.768-1.084zm-2.075-1.468h-1v-1.695h1.052c.547 0 .876.007.985.023a.825.825 0 01.508.262.8.8 0 01.18.544.87.87 0 01-.137.5.727.727 0 01-.378.282 5.157 5.157 0 01-1.21.084zm5.738.912h3.354v-1.126h-3.354v-1.481h3.605v-1.13h-4.954v6.68h5.081v-1.125h-3.732v-1.818zm8.936.724l-2.734-4.461h-1.313v6.68h1.253v-4.356l2.693 4.356h1.354v-6.68h-1.253v4.461zm2.201-3.332h1.982v5.551h1.35v-5.55h1.977v-1.13h-5.31v1.13z" fill="#000"/><path d="M68.058 65.579l-2.5-12.717a.781.781 0 00-.767-.63H41.574a17.96 17.96 0 10-12.75.726.782.782 0 10.471-1.49 16.425 16.425 0 114.96.763.781.781 0 00-.781.781c.004.029.01.057.017.084l-1.41 3.375a20.762 20.762 0 1118.152-7.38.781.781 0 101.201 1 22.33 22.33 0 10-19.98 7.885l-3.112 7.452a.781.781 0 00.72 1.082h3.907a.781.781 0 100-1.563h-2.734l3.87-9.26 2.003 10.194a.782.782 0 00.767.63H67.29a.78.78 0 00.767-.932zm-30.54-.631l-2.193-11.154h28.824l2.193 11.154H37.517z" fill="#000"/><path d="M34.258 25a.781.781 0 00-.78.781v10.04a.779.779 0 00.25.574l4.96 4.57a.781.781 0 101.062-1.149l-4.71-4.338v-9.697a.78.78 0 00-.782-.781z" fill="#000"/></svg>