<svg width="50" height="50" fill="none" xmlns="http://www.w3.org/2000/svg"><g clip-path="url(#clip0)" fill="#000"><path d="M24.908 8.926l6.031 1.901a.731.731 0 00.919-.478l.973-3.086a.733.733 0 00-.479-.918l-6.03-1.901a.733.733 0 00-.92.478l-.972 3.085a.732.732 0 00.478.92zm1.671-2.865l4.634 1.46-.532 1.689-4.634-1.46.532-1.69zm7.751 5.835l6.03 1.901a.735.735 0 00.919-.478l.972-3.086a.733.733 0 00-.478-.918l-6.03-1.901a.733.733 0 00-.92.478l-.972 3.085a.733.733 0 00.478.92zM36 9.031l4.634 1.46-.532 1.689-4.634-1.46L36 9.03zm-13.128 6.356l6.03 1.9a.731.731 0 00.92-.477l.972-3.086a.732.732 0 00-.478-.919l-6.031-1.901a.733.733 0 00-.919.478l-.973 3.086a.733.733 0 00.479.919zm1.671-2.866l4.634 1.46-.533 1.69-4.633-1.461.532-1.689zm7.271 4.917a.732.732 0 00.478.919l6.031 1.9a.73.73 0 00.92-.477l.972-3.086a.732.732 0 00-.479-.919l-6.03-1.9a.732.732 0 00-.92.477l-.972 3.086zm2.15-1.947l4.634 1.461-.533 1.689-4.633-1.461.532-1.689zm-5.207 4.693a.732.732 0 00-.478-.918l-6.03-1.901a.733.733 0 00-.92.478l-.972 3.085a.732.732 0 00.478.92l6.031 1.9a.731.731 0 00.919-.478l.972-3.085zm-2.15 1.947l-4.633-1.46.532-1.69 4.634 1.462-.532 1.688zm11.093.105l-6.03-1.902a.733.733 0 00-.92.479l-.972 3.085a.733.733 0 00.478.92l6.031 1.9a.731.731 0 00.919-.478l.972-3.086a.732.732 0 00-.478-.918zM36.03 25.1l-4.634-1.46.532-1.69 4.634 1.461-.532 1.689zm-9.788.627l-6.03-1.902a.733.733 0 00-.92.479l-.972 3.085a.732.732 0 00.479.919l6.03 1.901a.734.734 0 00.92-.478l.972-3.086a.732.732 0 00-.479-.918zm-1.67 2.865l-4.634-1.46.532-1.69 4.633 1.461-.532 1.689zm11.091.104l-6.03-1.901a.733.733 0 00-.92.478l-.972 3.086a.733.733 0 00.478.918l6.031 1.902a.733.733 0 00.919-.478l.973-3.086a.732.732 0 00-.479-.919zm-1.67 2.865l-4.635-1.46.533-1.689 4.634 1.46-.533 1.69z"/><path d="M47.93 36.601h-4.32l.694-5.257c1.853-.13 3.442-1.557 3.701-3.455.015-.109.025-.22.03-.33l.956.125a.733.733 0 00.192-1.452s-4.883-.645-4.894-.645a.732.732 0 00-.785.633l-1.372 10.381h-4.249l8.513-27.005a2.526 2.526 0 00-1.648-3.165L25.89.486a2.527 2.527 0 00-3.165 1.647L11.832 36.6h-1.306L7.368 14.857a.731.731 0 00-.83-.62l-3.012.436-1.836.265a.732.732 0 10.21 1.45l.953-.138c.007.112.018.222.034.33.283 1.896 1.89 3.305 3.746 3.41l2.412 16.611H7.15a.732.732 0 000 1.465h19.37v6.905a.732.732 0 001.233.535l5.177-4.843.909 1.012v2.44a.732.732 0 101.465 0v-2.72a.732.732 0 00-.188-.49L34 39.662l1.706-1.596h12.223c.334 0 .606.272.606.606v2.34l-.832-.046-1.725-1.725a.732.732 0 10-1.036 1.036l1.924 1.924a.733.733 0 00.478.213l1.191.064v5.687H1.465V43.42h2.28a.733.733 0 00.49-.187l1.32-1.186a.732.732 0 10-.978-1.09l-1.112.999h-2v-3.283c0-.334.272-.606.606-.606h2.148a.732.732 0 100-1.465H2.071A2.072 2.072 0 000 38.671v10.227c0 .404.328.732.732.732h48.536a.732.732 0 00.732-.732V38.672c0-1.142-.929-2.07-2.07-2.07zm-1.376-8.91a2.561 2.561 0 01-2.052 2.154l.358-2.707 1.715.227c0 .112-.007.221-.021.326zM4.336 16.365a2.483 2.483 0 01-.025-.326l1.712-.247.39 2.702a2.562 2.562 0 01-2.077-2.13zM20.184 36.6l1.265-4.01 3.566 1.123-.91 2.887h-3.92zm7.069 0H25.64l.771-2.447 3.566 1.124-1.992 6.32v-4.264a.732.732 0 00-.732-.733zm8.164 0a.733.733 0 00-.5.198L29.41 41.95l2.184-6.93a.732.732 0 00-.478-.918l-9.925-3.13a.732.732 0 00-.919.48l-1.623 5.15h-5.282L24.122 2.573a1.06 1.06 0 011.328-.69l18.858 5.944c.556.176.867.771.691 1.328L36.347 36.6h-.93z"/></g><defs><clipPath id="clip0"><path fill="#fff" d="M0 0h50v50H0z"/></clipPath></defs></svg>