<svg width="60" height="60" fill="none" xmlns="http://www.w3.org/2000/svg"><path d="M57.188 27.188H41.25a2.821 2.821 0 00-2.813-2.813h-5.624A2.821 2.821 0 0030 27.188h-7.5a.938.938 0 01-.938-.938v-6.563a2.821 2.821 0 002.813-2.812V11.25a2.821 2.821 0 00-2.813-2.813V2.814a.938.938 0 00-.937-.938H7.5a.937.937 0 00-.938.938v5.624A2.821 2.821 0 003.75 11.25v5.625a2.821 2.821 0 002.813 2.813v12.187a10.32 10.32 0 0010.312 10.313H30A2.821 2.821 0 0032.813 45h5.624a2.821 2.821 0 002.813-2.813h15.938a.938.938 0 00.937-.937V28.125a.938.938 0 00-.938-.938zM8.438 3.75h11.25v4.688H8.438V3.75zM6.562 17.813a.938.938 0 01-.937-.938V11.25a.937.937 0 01.938-.938h15a.938.938 0 01.937.938v5.625a.938.938 0 01-.938.938h-15zM30 40.313H17.812v-1.491l2.813-2.813 1.21 1.22 1.33-1.332-1.218-1.21 1.219-1.209-1.332-1.331-4.021 4.031-2.147-2.156-1.332 1.331 2.157 2.147-.282.272a.969.969 0 00-.271.666v1.818a8.452 8.452 0 01-7.5-8.381V19.687h11.25v6.563a2.821 2.821 0 002.812 2.813H30v11.25zm9.375 1.874a.938.938 0 01-.938.938h-5.624a.938.938 0 01-.938-.938v-15a.938.938 0 01.938-.937h5.624a.938.938 0 01.938.938v15zm16.875-1.874h-15v-11.25h15v11.25zm-36.397 4.155c-.614.888-2.04 3.084-2.04 4.282a2.813 2.813 0 005.625 0c0-1.198-1.427-3.394-2.041-4.282a.974.974 0 00-1.544 0zm.772 5.22a.938.938 0 01-.938-.938c.204-.717.52-1.396.938-2.013.418.617.734 1.296.938 2.013a.937.937 0 01-.938.938zm-5.459 1.342c-.614.889-2.041 3.084-2.041 4.282a2.813 2.813 0 005.625 0c0-1.198-1.427-3.393-2.04-4.282a.974.974 0 00-1.544 0zm.771 5.22a.938.938 0 01-.937-.938c.203-.716.52-1.396.938-2.012.417.617.734 1.296.937 2.013a.937.937 0 01-.938.937z" fill="#000"/><path d="M43.125 36.563H45v1.874h-1.875v-1.874zm3.75 0h3.75v1.874h-3.75v-1.874z" fill="#000"/></svg>