<svg width="80" height="80" fill="none" xmlns="http://www.w3.org/2000/svg"><path d="M36.158 17.546h-2.933a.781.781 0 00-.781.782v3.706l-2.725 2.071a.781.781 0 00-.264.88.808.808 0 00.754.523l1.022-.022V35.54a.781.781 0 00.781.781h4.618a.781.781 0 00.781-.781v-4.51h5.179v1.418a.78.78 0 101.562 0V30.25a.781.781 0 00-.781-.781H36.63a.781.781 0 00-.782.781v4.511h-3.055V24.688a.784.784 0 00-.377-.67l1.282-.975a.782.782 0 00.309-.625v-3.312h1.368v1.083a.782.782 0 001.255.625l3.37-2.56 7.585 5.764a.8.8 0 00-.317.367.784.784 0 00-.06.303V34.76H43.37a.781.781 0 100 1.562h4.618a.781.781 0 00.781-.781V25.486l1.022.022a.833.833 0 00.755-.523.782.782 0 00-.265-.88l-9.809-7.455a.782.782 0 00-.946 0l-2.59 1.968v-.29a.781.781 0 00-.78-.782z" fill="#000"/><path d="M58.854 15.781a.781.781 0 00-.781.781V66.51H21.927V13.49h36.927a.781.781 0 000-1.563H21.145a.781.781 0 00-.78.781v54.584a.781.781 0 00.78.781h37.71a.781.781 0 00.78-.781v-50.73a.781.781 0 00-.78-.78z" fill="#000"/><path d="M52.031 40.986H33.855a.781.781 0 100 1.563H52.03a.781.781 0 100-1.563zm-24.843.782a.781.781 0 00.78.78h2.761a.781.781 0 100-1.562h-2.76a.781.781 0 00-.782.782zm.781 7.008h17.864a.782.782 0 000-1.563H27.97a.78.78 0 100 1.563zm24.844 5.445a.781.781 0 00-.782-.781H27.97a.781.781 0 000 1.562h24.06a.781.781 0 00.782-.78zm-24.844 5.446a.781.781 0 100 1.563h17.864a.782.782 0 000-1.563H27.97z" fill="#000"/></svg>