<svg width="54" height="54" fill="none" xmlns="http://www.w3.org/2000/svg"><g clip-path="url(#clip0)" fill="#000"><path d="M42.29 28.795a12.43 12.43 0 008.596-4.219c4.557-5.175 4.053-13.097-1.121-17.657a12.5 12.5 0 00-8.118-3.121l-.144-.001a12.51 12.51 0 00-7.96 2.854.792.792 0 001.007 1.22c4.157-3.433 10.116-3.335 14.17.234 4.52 3.984 4.958 10.904.978 15.426a10.856 10.856 0 01-7.509 3.685 10.91 10.91 0 01-4.188-.547 10.798 10.798 0 01-2.14-.995 11.012 11.012 0 01-1.585-1.164 10.927 10.927 0 01-3.336-5.352 10.885 10.885 0 011.228-8.541.791.791 0 00-1.35-.826 12.468 12.468 0 00-1.632 8.791 12.581 12.581 0 00-3.016-.367c-3.47 0-6.926 1.433-9.395 4.236a12.483 12.483 0 00-3.028 9.745L8.81 33.72a2.08 2.08 0 00-1.88-1.195H2.078A2.08 2.08 0 000 34.605v11.908a2.08 2.08 0 002.077 2.077H6.93a2.08 2.08 0 001.963-1.399l6.36 1.104a.79.79 0 10.27-1.559l-6.514-1.13V35.313l5.025-1.551 1.229-.38.285-.087c4.242-1.291 6.247-1.513 9.061-1.513h2.565c.317.057.6.153.85.279.772.384 1.221 1.047 1.35 1.728.039.198.05.397.034.591-.076.937-.803 1.939-2.613 1.939h-1.997c-1.585-.103-2.596 1.017-2.775 2.184-.173 1.125.438 2.524 2.19 2.939a.811.811 0 00.05.01l.909.152 5.257.88.195.032a.516.516 0 00.07.009c.375.03.738.072 1.089.115 1.085.128 2.11.25 3.343-.037l11.357-2.653a.186.186 0 01.011-.003c1.327-.332 2.001.28 2.19.964.198.727-.116 1.667-1.277 2.014L29.59 48.253c-1.98.591-3.621.33-4.234.19l-.04-.009-6.194-1.073a.792.792 0 00-.27 1.558l6.173 1.07a9.44 9.44 0 002.042.214c.848 0 1.87-.103 2.977-.435l17.814-5.326c2.061-.616 2.75-2.494 2.35-3.949-.383-1.398-1.827-2.645-4.092-2.082l-11.35 2.652c-.6.14-1.157.154-1.73.114.92-.606 1.764-1.34 2.512-2.19a12.426 12.426 0 003.097-9.06 12.65 12.65 0 00-.18-1.474 12.495 12.495 0 003.823.342zM7.426 46.513a.503.503 0 01-.497.495H2.077a.501.501 0 01-.495-.495V34.605c0-.275.222-.498.495-.498H6.93c.27 0 .497.228.497.498v11.908zm26.934-8.57a10.877 10.877 0 01-4.092 2.911l-5.716-.957c-.69-.17-1.05-.6-.966-1.151.07-.458.446-.895 1.126-.846l.058.002h2.024c2.704 0 4.053-1.705 4.19-3.393a3.951 3.951 0 00-1.873-3.658 2.553 2.553 0 00-1.963-.922h-1.96c-.55 0-1-.45-1-1 0-.552.45-1 1-1h3.736a.791.791 0 000-1.583h-1.972v-1.338a.791.791 0 10-1.582 0v1.338h-.181a2.585 2.585 0 00-2.582 2.582c0 .476.13.923.355 1.306-2.189.096-4.22.445-7.676 1.488-.267-2.89.61-5.88 2.675-8.225 2.994-3.4 7.648-4.49 11.694-3.13.686 2 1.889 3.845 3.575 5.33a12.475 12.475 0 003.485 2.177c.185.698.304 1.417.35 2.153a10.85 10.85 0 01-2.705 7.916z"/><path d="M42.47 19.103h-3.735a.791.791 0 100 1.582h1.969v1.335a.791.791 0 001.582 0v-1.335h.183a2.587 2.587 0 002.583-2.586 2.58 2.58 0 00-2.57-2.582h-1.956a1.001 1.001 0 010-2h3.735a.791.791 0 100-1.583h-1.972V10.6a.79.79 0 10-1.582 0v1.335h-.181a2.585 2.585 0 00-2.582 2.583 2.585 2.585 0 002.582 2.582h1.955a1.003 1.003 0 01-.012 2.004z"/></g><defs><clipPath id="clip0"><path fill="#fff" d="M0 0h54v54H0z"/></clipPath></defs></svg>