<svg width="60" height="60" fill="none" xmlns="http://www.w3.org/2000/svg"><g clip-path="url(#clip0)" fill="#000"><path d="M51.542 11.123a.879.879 0 00.88-.879V3.507A3.51 3.51 0 0048.914 0H11.087A3.51 3.51 0 007.58 3.507v17.657a.88.88 0 00.426.753l6.408 3.86a3.328 3.328 0 003.641-.13l4.245-2.992a1.57 1.57 0 011.501-.173l6.133 2.491a3.352 3.352 0 003.245-.415l3.831-2.853a1.584 1.584 0 011.785-.066l4.731 3a3.331 3.331 0 003.407.098l5.037-2.806a.879.879 0 00.452-.767v-7.405a.879.879 0 10-1.758 0v6.888l-4.586 2.554a1.574 1.574 0 01-1.61-.046l-4.731-3a3.353 3.353 0 00-3.777.14l-3.83 2.854a1.585 1.585 0 01-1.535.196l-6.133-2.491a3.32 3.32 0 00-3.175.364l-4.245 2.992c-.51.36-1.186.384-1.721.062l-5.983-3.605V3.507c0-.965.785-1.75 1.75-1.75h37.827c.964 0 1.749.785 1.749 1.75v6.737c0 .486.393.879.878.879z"/><path d="M52.024 25.793a.879.879 0 00-.833-.07l-5.196 2.26a.853.853 0 00-.116.06.686.686 0 01-.791-.041l-6.013-3.863a2.453 2.453 0 00-2.938.118L31.94 27.69a.69.69 0 01-.573.141l-7.323-2.673a2.432 2.432 0 00-1.94.241l-5.281 3.387a.691.691 0 01-.596.025l-.011-.005-7.419-3.089a.879.879 0 00-1.217.812v11.58a.879.879 0 101.758 0V27.846l6.197 2.58a2.457 2.457 0 002.213-.146l5.28-3.387a.681.681 0 01.461-.067l7.324 2.673c.027.01.055.019.082.026a2.452 2.452 0 002.157-.475l4.199-3.433a.69.69 0 01.861-.009l6.013 3.863c.785.543 1.806.58 2.626.099l3.913-1.702v18.005a3.4 3.4 0 01-.013.286h-9.09a3.64 3.64 0 00-3.636 3.636v8.434c-.095.008-.19.013-.287.013h-26.55a1.751 1.751 0 01-1.75-1.75v-14.87a.879.879 0 10-1.758 0v14.87A3.51 3.51 0 0011.086 60h26.55a5.161 5.161 0 003.663-1.51l9.578-8.921a5.162 5.162 0 001.544-3.696V26.53a.879.879 0 00-.397-.736zM40.09 57.213a3.463 3.463 0 01-.409.355v-7.772a1.88 1.88 0 011.879-1.878h8.43a3.503 3.503 0 01-.324.376l-9.576 8.92zM18.607 10.645h6.017a.879.879 0 100-1.758h-6.017a.879.879 0 100 1.758zm0 4.548h22.7a.879.879 0 100-1.758h-22.7a.879.879 0 000 1.758z"/><path d="M18.693 37.622h22.614a.879.879 0 100-1.758H18.693a.879.879 0 100 1.758zm0 4.7h22.614a.879.879 0 100-1.758H18.693a.879.879 0 100 1.758zm0 4.701h16.125a.879.879 0 100-1.758H18.693a.879.879 0 000 1.758z"/></g><defs><clipPath id="clip0"><path fill="#fff" d="M0 0h60v60H0z"/></clipPath></defs></svg>